:SAMPLES-PER-SECOND 30
:FULLY-SPECIFIED
:DEGREES
215
root  23.7693 39.9408 1.74422 166.137 87.0101 167.875
RightUpLeg  -13.4333 -13.4353 -4.85638
RightLeg  13.644 -2.78604 0.859659
RightFoot  0.483377 -0.16784 1.65673
RightToes  -2.9104e-010 0 -3.6325e-017
Spine  9.09622 -0.580868 2.01825
Spine1  10.6861 -1.00367 1.57579
HEad  -23.8266 8.48405 -7.35624
LeftShoulder1  6.41809 -10.6943 -39.0012
LeftArm  -13.3055 16.4391 -26.6514
LeftForeArm  26.3843 -21.9617 -3.48255
LeftHand  -0.244104 0.0205437 5.32207
RightShoulder  4.75473 8.7634 32.8184
RightArm  -11.9427 -20.0049 36.1461
RightForeArm  -6.95216 19.6401 5.33286
RightHand  -0.859483 2.07928 -13.5051
LeftUpLeg  5.52536 8.00627 1.55398
LeftLeg  11.8938 4.33009 -1.01654
LeftFoot  -13.6218 0.0440626 -1.88269
LeftToes  1.09107e-011 -5.80176e-011 5.60941e-012
216
root  23.1847 40.0126 1.51547 166.561 87.3684 168.333
RightUpLeg  -13.0063 -12.966 -5.53703
RightLeg  11.7179 -3.63491 1.6094
RightFoot  0.289063 -0.323207 3.19504
RightToes  -2.9104e-010 0 -3.6325e-017
Spine  9.5803 -0.448712 1.85197
Spine1  10.0903 -0.770249 1.25174
HEad  -22.8603 7.43007 -6.82906
LeftShoulder1  5.78052 -10.0573 -36.5147
LeftArm  -14.293 16.2092 -23.2777
LeftForeArm  25.0767 -18.3745 -3.38595
LeftHand  -0.244104 0.0205437 5.32207
RightShoulder  4.25861 8.1675 30.5298
RightArm  -16.1132 -20.7092 33.7899
RightForeArm  -5.41364 16.7396 5.27526
RightHand  -0.831319 2.03648 -13.1469
LeftUpLeg  4.69197 7.93989 1.17579
LeftLeg  11.7287 4.84006 -1.24844
LeftFoot  -12.9624 0.0611205 -1.15661
LeftToes  1.09107e-011 -5.80176e-011 5.60941e-012
217
root  22.6968 40.0712 1.29695 164.085 88.3788 166.032
RightUpLeg  -12.6915 -13.2191 -5.61707
RightLeg  11.2064 -3.55532 1.76036
RightFoot  -0.118663 -0.415882 4.21947
RightToes  -2.9104e-010 0 -3.6325e-017
Spine  9.8673 -0.046983 2.14009
Spine1  9.36231 -0.138053 0.567569
HEad  -21.4361 6.63418 -6.3985
LeftShoulder1  5.10382 -9.37144 -33.5824
LeftArm  -15.9358 16.2207 -20.1204
LeftForeArm  23.9114 -14.7131 -3.204
LeftHand  -0.244104 0.0205437 5.32207
RightShoulder  3.71817 7.36767 28.1969
RightArm  -19.8429 -20.9063 30.2623
RightForeArm  -4.55415 13.3687 4.84784
RightHand  -0.8616 2.27833 -13.2007
LeftUpLeg  4.3736 7.48303 0.968602
LeftLeg  11.2729 6.4863 -1.52509
LeftFoot  -12.3759 0.0730933 -0.144369
LeftToes  1.09107e-011 -5.80176e-011 5.60941e-012
218
root  22.2797 40.1156 1.11696 177.457 89.5034 179.565
RightUpLeg  -12.9344 -14.6751 -5.25251
RightLeg  13.0955 -2.15576 0.97201
RightFoot  -0.570131 -0.398262 4.17698
RightToes  -2.9104e-010 0 -3.6325e-017
Spine  9.98398 0.406228 2.00405
Spine1  8.51808 0.425002 0.196289
HEad  -20.0431 6.27519 -6.04427
LeftShoulder1  4.45568 -8.68625 -30.4907
LeftArm  -17.1611 16.745 -17.0553
LeftForeArm  21.2832 -11.9038 -2.75957
LeftHand  -0.244104 0.0205437 5.32207
RightShoulder  3.19225 6.4912 25.8573
RightArm  -22.8429 -20.6821 26.2878
RightForeArm  -6.62497 10.5864 4.00221
RightHand  -0.942338 2.55117 -13.9354
LeftUpLeg  4.12393 6.9703 0.690208
LeftLeg  10.9399 8.10402 -1.73068
LeftFoot  -11.8061 0.0723259 0.301385
LeftToes  1.09107e-011 -5.80176e-011 5.60941e-012
219
root  21.9295 40.1491 0.977716 57.9558 89.5985 60.2428
RightUpLeg  -13.0646 -15.6274 -5.04301
RightLeg  16.4119 -1.1079 -0.21216
RightFoot  -1.1473 -0.351397 3.85061
RightToes  -2.9104e-010 0 -3.6325e-017
Spine  9.98128 0.685261 1.58875
Spine1  7.66946 0.692331 0.167853
HEad  -18.7953 6.30351 -5.70423
LeftShoulder1  3.87909 -8.04288 -27.469
LeftArm  -17.8092 17.648 -13.9719
LeftForeArm  17.7677 -10.1739 -2.22368
LeftHand  -0.244104 0.0205437 5.32207
RightShoulder  2.69541 5.64866 23.2414
RightArm  -25.1003 -20.1667 22.5996
RightForeArm  -11.2517 8.82229 3.19726
RightHand  -1.0385 2.66822 -15.1091
LeftUpLeg  3.89279 6.73022 0.461634
LeftLeg  10.7554 9.08253 -1.86788
LeftFoot  -11.3657 0.0683237 0.451286
LeftToes  1.09107e-011 -5.80176e-011 5.60941e-012
220
root  21.6488 40.1798 0.8659 4.32333 89.2737 6.85456
RightUpLeg  -12.3685 -14.3713 -5.47359
RightLeg  19.6875 -2.12819 -1.1035
RightFoot  -1.9565 -0.35733 4.19468
RightToes  -2.9104e-010 0 -3.6325e-017
Spine  9.90147 0.774195 1.44389
Spine1  6.86515 0.800521 0.0453257
HEad  -17.5558 6.44089 -5.35502
LeftShoulder1  3.29837 -7.29248 -24.2926
LeftArm  -18.5588 18.425 -11.3331
LeftForeArm  14.8291 -9.1587 -1.62087
LeftHand  -0.244104 0.0205437 5.32207
RightShoulder  2.18147 4.70894 20.1571
RightArm  -26.5761 -19.4689 19.5876
RightForeArm  -16.1909 8.05247 2.78442
RightHand  -1.14198 2.8344 -16.2549
LeftUpLeg  3.79953 6.59613 0.374571
LeftLeg  10.5591 9.77386 -1.93109
LeftFoot  -11.0004 0.0635547 0.819739
LeftToes  1.09107e-011 -5.80176e-011 5.60941e-012
221
root  21.433 40.2198 0.773573 -7.60154 88.9592 -4.8393
RightUpLeg  -11.0578 -12.6306 -5.99557
RightLeg  22.2483 -3.51114 -1.79199
RightFoot  -2.79011 -0.387487 4.92161
RightToes  -2.9104e-010 0 -3.6325e-017
Spine  9.65029 0.780782 1.64847
Spine1  6.14512 0.906483 -0.335985
HEad  -16.2563 6.49868 -4.97984
LeftShoulder1  2.65095 -6.25971 -20.6823
LeftArm  -19.7446 18.7439 -9.57532
LeftForeArm  12.8895 -8.62021 -0.97333
LeftHand  -0.244104 0.0205437 5.32207
RightShoulder  1.67331 3.61095 16.875
RightArm  -27.0203 -18.4924 17.0148
RightForeArm  -19.5546 7.90846 2.75223
RightHand  -1.2462 3.18207 -17.0104
LeftUpLeg  3.82893 6.40136 0.36724
LeftLeg  10.2819 10.3954 -1.92483
LeftFoot  -10.5742 0.055567 1.17929
LeftToes  1.09107e-011 -5.80176e-011 5.60941e-012
